<?xml version="1.0" standalone="no"?>
<!DOCTYPE svg PUBLIC "-//W3C//DTD SVG 20010904//EN"
 "http://www.w3.org/TR/2001/REC-SVG-20010904/DTD/svg10.dtd">
<svg version="1.0" xmlns="http://www.w3.org/2000/svg"
 width="100.000000pt" height="100.000000pt" viewBox="0 0 308.000000 326.000000"
 preserveAspectRatio="xMidYMid meet">
<metadata>
Created by potrace 1.15, written by Peter Selinger 2001-2017
</metadata>
<g transform="translate(0.000000,326.000000) scale(0.100000,-0.100000)"
fill="#000000" stroke="none">
<path d="M1820 3016 c-14 -8 -53 -21 -87 -30 -34 -8 -113 -42 -176 -76 -127
-67 -159 -72 -264 -45 -88 24 -217 5 -363 -52 -125 -49 -412 -228 -434 -271
-8 -15 -40 -59 -73 -97 -86 -103 -120 -162 -139 -240 -9 -38 -41 -124 -71
-189 -62 -140 -83 -204 -83 -260 0 -59 24 -138 60 -203 31 -54 32 -60 21 -106
-22 -98 -7 -223 48 -377 56 -158 138 -263 266 -338 74 -44 82 -52 115 -115 41
-80 92 -141 171 -207 80 -67 145 -88 318 -106 135 -14 153 -18 236 -57 l90
-42 165 0 c143 1 180 4 277 27 337 80 561 239 643 456 14 36 46 76 122 153 57
57 115 127 130 154 30 57 119 313 148 427 24 93 25 178 4 289 -21 109 -21 196
0 291 37 177 5 359 -95 524 -31 50 -42 60 -114 94 -80 38 -224 80 -276 80 -22
0 -37 12 -73 58 -109 142 -241 229 -389 257 -96 18 -144 18 -177 1z m295 -125
c36 -18 89 -54 117 -81 l53 -48 -58 -56 c-32 -31 -61 -56 -65 -56 -4 0 -24 -5
-45 -11 -45 -12 -77 -57 -77 -107 0 -24 -6 -35 -22 -41 -27 -10 -50 -35 -72
-78 -12 -23 -36 -41 -98 -71 -49 -24 -100 -58 -123 -82 l-40 -41 24 -20 c13
-10 31 -19 41 -19 30 0 79 49 92 92 8 28 19 43 37 49 14 5 56 42 93 82 l68 72
26 -33 c48 -61 142 -94 193 -68 17 9 55 16 86 16 31 0 69 7 86 15 33 18 76 72
103 133 24 52 50 55 131 12 31 -16 63 -30 71 -30 33 0 107 -137 125 -233 10
-51 9 -89 0 -179 -24 -215 -24 -266 -2 -388 33 -177 26 -245 -38 -396 -16 -38
-39 -107 -51 -154 -13 -47 -29 -98 -38 -115 -33 -68 -97 -138 -210 -228 -66
-53 -129 -108 -140 -122 -13 -17 -39 -31 -69 -38 -41 -10 -51 -18 -71 -54 -22
-40 -27 -43 -65 -43 -28 0 -58 -10 -92 -30 -59 -35 -77 -37 -121 -9 -26 16
-37 18 -53 9 -42 -22 -52 -69 -21 -100 23 -23 37 -19 156 41 53 26 92 39 119
39 50 0 79 20 105 69 16 32 26 39 59 45 30 5 49 17 81 53 39 45 41 46 34 18
-18 -75 -96 -178 -180 -235 -177 -122 -452 -197 -688 -188 -107 4 -114 6 -194
47 -81 41 -89 43 -239 56 -123 12 -166 20 -209 39 -73 34 -184 148 -223 230
-34 71 -73 110 -161 157 -34 18 -77 51 -96 73 -72 84 -144 270 -169 437 l-7
46 47 17 c31 12 56 31 76 59 52 72 32 109 -66 122 -64 8 -67 10 -96 65 -19 36
-24 61 -24 120 0 70 4 83 57 200 31 69 68 161 82 205 28 89 76 174 140 249 23
28 51 64 62 80 18 28 172 135 294 204 31 17 98 45 150 63 121 40 218 48 323
24 67 -15 77 -20 77 -39 0 -12 7 -31 15 -43 15 -21 14 -24 -24 -59 -23 -20
-50 -51 -62 -70 -16 -27 -25 -33 -43 -28 -43 10 -99 -25 -192 -121 -73 -76
-99 -95 -135 -105 -95 -26 -136 -64 -174 -163 -11 -30 -32 -59 -56 -78 -33
-26 -52 -59 -34 -59 3 0 40 18 82 41 57 30 87 40 114 38 34 -3 40 2 87 58 50
59 116 103 158 103 14 0 48 42 118 147 55 80 124 172 153 203 29 32 53 63 53
69 0 7 -7 23 -16 36 -9 14 -14 31 -11 40 6 14 166 101 254 137 77 32 174 48
270 44 80 -3 102 -8 158 -35z m240 -236 c46 -54 48 -56 94 -53 43 3 46 2 49
-24 5 -43 -26 -95 -75 -127 -39 -26 -52 -29 -88 -24 -31 4 -51 1 -73 -12 -29
-18 -32 -17 -103 9 -41 15 -77 33 -81 39 -4 7 -8 31 -8 53 0 50 35 90 85 100
20 3 52 24 79 50 26 24 52 44 60 44 7 0 35 -25 61 -55z m-1075 -161 c0 -14
-27 -53 -66 -95 -24 -26 -49 -63 -57 -82 -12 -27 -22 -36 -49 -41 -50 -9 -123
-59 -158 -108 -28 -39 -37 -44 -83 -50 -29 -3 -54 -5 -56 -3 -2 2 0 16 3 30
12 46 68 94 181 153 86 45 117 67 143 102 60 81 82 100 113 100 16 0 29 -3 29
-6z"/>
<path d="M2542 2342 c-15 -29 -37 -46 -98 -79 l-79 -42 -55 15 c-160 44 -333
-42 -391 -196 -10 -27 -19 -59 -19 -70 0 -11 -7 -20 -15 -20 -9 0 -41 -26 -73
-58 -47 -48 -67 -60 -117 -74 -74 -21 -115 -51 -115 -84 0 -24 0 -24 49 11 56
40 110 65 144 65 15 0 29 9 38 27 8 14 32 39 53 55 l40 28 18 -29 c21 -33 68
-56 98 -48 12 3 39 -5 63 -19 54 -31 121 -32 185 -2 56 26 138 105 175 169
l27 46 -19 55 c-11 31 -25 66 -31 79 -11 20 -10 25 9 40 11 9 39 20 61 24 44
8 60 25 84 92 12 35 12 42 1 47 -8 3 -21 -9 -33 -32z m-196 -158 c47 -23 74
-67 74 -124 0 -58 -25 -99 -87 -141 -26 -18 -63 -45 -81 -61 -41 -35 -69 -35
-135 -1 -29 14 -76 30 -105 34 -93 13 -101 37 -51 152 47 107 74 130 194 161
38 9 154 -3 191 -20z"/>
<path d="M2568 1488 c-33 -71 -78 -122 -133 -148 -37 -18 -46 -28 -56 -62 -6
-22 -21 -51 -34 -64 -28 -28 -69 -31 -206 -12 -67 9 -98 9 -126 0 -33 -10 -40
-9 -58 8 -45 42 -121 17 -156 -51 -25 -50 -24 -90 3 -124 20 -26 25 -27 85
-22 39 3 63 1 63 -5 0 -6 14 -26 30 -45 24 -26 28 -38 20 -52 -18 -34 -79 -80
-116 -87 -24 -4 -52 -22 -79 -48 -23 -23 -64 -60 -91 -83 l-49 -42 31 -1 c18
0 45 11 69 29 33 24 42 27 65 18 43 -16 85 6 99 51 15 50 101 153 121 145 68
-27 94 -14 178 91 58 70 60 76 52 108 -14 46 -14 46 19 53 36 8 94 69 111 118
10 27 23 39 61 54 56 24 102 82 124 157 21 71 3 80 -27 14z m-613 -324 c15
-24 18 -24 34 -10 19 17 60 20 133 10 33 -5 58 -17 89 -44 l43 -37 -28 -34
c-15 -19 -41 -55 -57 -81 -24 -41 -33 -48 -59 -48 -47 0 -65 14 -106 80 l-37
60 -64 -6 c-73 -8 -83 -2 -83 54 0 72 97 113 135 56z"/>
<path d="M1226 1399 c-24 -19 -26 -24 -20 -75 6 -47 4 -57 -18 -86 -14 -18
-49 -46 -77 -63 -49 -29 -51 -31 -46 -66 5 -26 1 -41 -12 -58 l-18 -22 -60 27
c-136 63 -265 34 -265 -60 0 -14 -5 -28 -11 -32 -14 -8 -140 116 -177 173 -15
24 -30 43 -34 43 -5 0 -8 -20 -8 -45 0 -41 3 -46 48 -76 61 -41 72 -56 72 -95
0 -97 66 -157 248 -224 53 -19 66 -29 83 -61 22 -45 45 -59 93 -59 37 0 96 40
96 66 0 18 2 18 49 -6 22 -12 63 -22 95 -24 40 -2 63 -9 79 -23 39 -36 64 -45
89 -32 25 14 29 9 -68 72 -41 27 -55 32 -77 24 -19 -6 -38 -3 -72 12 -44 19
-46 23 -40 50 8 38 -11 76 -64 123 -47 41 -52 74 -26 148 8 23 15 52 15 64 0
14 19 36 55 64 59 45 186 208 178 228 -4 11 -54 34 -73 34 -4 0 -19 -9 -34
-21z m-249 -377 c37 -20 63 -62 63 -102 0 -32 6 -43 45 -74 25 -21 45 -45 45
-55 0 -9 -13 -30 -30 -46 -16 -15 -32 -41 -35 -56 -5 -22 -12 -29 -30 -29 -39
0 -55 11 -76 51 -13 26 -26 39 -40 39 -42 0 -77 29 -105 87 -15 32 -38 70 -52
85 -20 22 -24 34 -19 64 3 20 9 39 12 43 21 20 181 15 222 -7z"/>
</g>
</svg>
