<?xml version="1.0" encoding="iso-8859-1"?>
<!-- Generator: Adobe Illustrator 19.0.0, SVG Export Plug-In . SVG Version: 6.00 Build 0)  -->
<svg version="1.1" id="Layer_1" xmlns="http://www.w3.org/2000/svg" xmlns:xlink="http://www.w3.org/1999/xlink" x="0px" y="0px"
	 viewBox="0 0 291.037 291.037" style="enable-background:new 0 0 291.037 291.037;" xml:space="preserve">
<g>
	<g>
		<ellipse style="fill:#F9BA48;" cx="206.61" cy="140.886" rx="14.057" ry="9.371"/>
		<ellipse style="fill:#F9BA48;" cx="94.154" cy="70.601" rx="18.743" ry="9.371"/>
		<ellipse style="fill:#F9BA48;" cx="126.953" cy="187.743" rx="18.743" ry="14.057"/>
		<circle style="fill:#F9BA48;" cx="248.781" cy="201.8" r="9.371"/>
		<path style="fill:#333333;" d="M286.266,126.539V82.081l-92.987-58.73l-66.073,18.874l-23.128-9.25L38.933,43.003L28.901,78.094
			L0,126.267l19.516,58.529l10.229,25.565l0.244,0.07l0.164,0.455l0.628-0.23l33.376,9.535l46.327,27.795l58.744,19.699
			l102.101-38.896l19.708-64.062L286.266,126.539z M248.34,108.485l28.554-15.866v27.289L248.34,108.485z M215.053,95.173
			l-19.844-59.527L272.396,84.4l-35.264,19.591l0.009,0.019L215.053,95.173z M102.972,42.628l20.589,8.233l8.575,17.15l8.383-4.194
			l-6.846-13.692l51.58-14.741l20.064,60.201l-73.134,21.512L80.195,88.739l-0.309,0.155l-39.88-15.95l6.283-21.601L102.972,42.628z
			 M37.256,82.386l0.117-0.398l31.296,12.52l-55.263,27.631L37.256,82.386z M45.573,205.225l32.125-11.653l9.381,19.005
			l-21.039-1.396v0.047L45.573,205.225z M85.092,221.822l41.974,2.797l-12.089,15.107l-0.112-0.037L85.092,221.822z
			 M208.568,225.392l37.738,2.905l-60.965,23.227L208.568,225.392z M264.145,220.271l-55.019-4.231l-36.211-49.79l-7.577,5.51
			l35.269,48.492l-32.926,37.045l-43.221-14.408l15.074-18.846l13.453-8.968l-5.196-7.797l-12.736,8.49l-36.932-2.465L82.43,181.919
			l-47.124,17.126l-6.996-17.473l-16.119-48.356L79.998,99.31l46.102,25.148l-7.216,25.265l-28.756-4.109l-1.326,9.278l36.843,5.262
			l9.788-34.248l75.622-22.243l66.246,26.497l3.847,31.019l-48.033,17.468l3.205,8.804l42.696-15.524L264.145,220.271z"/>
		<path style="fill:#333333;" d="M51.983,169c-5.632,0-9.371-2.821-9.371-4.686s3.739-4.686,9.371-4.686v-9.371
			c-10.51,0-18.743,6.171-18.743,14.057s8.233,14.057,18.743,14.057s18.743-6.171,18.743-14.057h-9.371
			C61.354,166.179,57.615,169,51.983,169z"/>
		<path style="fill:#333333;" d="M136.325,239.285h9.371c0-1.865,3.739-4.686,9.371-4.686s9.371,2.821,9.371,4.686h9.371
			c0-7.886-8.233-14.057-18.743-14.057C144.557,225.228,136.325,231.399,136.325,239.285z"/>
		<path style="fill:#333333;" d="M169.124,75.287c5.632,0,9.371,2.821,9.371,4.686s-3.739,4.686-9.371,4.686v9.371
			c10.51,0,18.743-6.171,18.743-14.057s-8.233-14.057-18.743-14.057s-18.743,6.171-18.743,14.057h9.371
			C159.753,78.108,163.492,75.287,169.124,75.287z"/>
		<path style="fill:#333333;" d="M230.038,140.886c0,10.337-10.51,18.743-23.428,18.743V169c18.082,0,32.8-12.609,32.8-28.114
			H230.038z"/>
		<circle style="fill:#F9BA48;" cx="80.097" cy="122.144" r="9.371"/>
	</g>
</g>
<g>
</g>
<g>
</g>
<g>
</g>
<g>
</g>
<g>
</g>
<g>
</g>
<g>
</g>
<g>
</g>
<g>
</g>
<g>
</g>
<g>
</g>
<g>
</g>
<g>
</g>
<g>
</g>
<g>
</g>
</svg>
